<?xml version="1.0" standalone="no"?>
<!DOCTYPE svg PUBLIC "-//W3C//DTD SVG 20010904//EN"
 "http://www.w3.org/TR/2001/REC-SVG-20010904/DTD/svg10.dtd">
<svg version="1.0" xmlns="http://www.w3.org/2000/svg"
 width="120.000000pt" height="120.000000pt" viewBox="0 0 120.000000 120.000000"
 preserveAspectRatio="xMidYMid meet">

<g transform="translate(0.000000,120.000000) scale(0.100000,-0.100000)"
fill="#000000" stroke="none">
<path d="M116 1035 c-14 -15 -16 -60 -16 -435 0 -367 2 -421 16 -434 13 -14
48 -16 225 -16 l209 0 0 -50 0 -50 50 0 50 0 0 50 0 50 208 0 c190 0 210 2
225 18 15 17 17 61 17 434 0 396 -1 416 -19 432 -17 16 -40 17 -208 14 -188
-3 -190 -3 -231 -31 l-42 -27 -42 27 c-41 28 -43 28 -233 31 -168 3 -194 1
-209 -13z m400 -119 l34 -34 0 -316 0 -316 -175 0 -175 0 0 350 0 350 141 0
141 0 34 -34z m484 -316 l0 -350 -175 0 -175 0 0 310 c0 199 4 317 11 333 22
48 53 56 202 57 l137 0 0 -350z"/>
</g>
</svg>
