<?xml version="1.0" standalone="no"?>
<!DOCTYPE svg PUBLIC "-//W3C//DTD SVG 20010904//EN"
 "http://www.w3.org/TR/2001/REC-SVG-20010904/DTD/svg10.dtd">
<svg version="1.0" xmlns="http://www.w3.org/2000/svg"
 width="120.000000pt" height="120.000000pt" viewBox="0 0 120.000000 120.000000"
 preserveAspectRatio="xMidYMid meet">

<g transform="translate(0.000000,120.000000) scale(0.100000,-0.100000)"
fill="#000000" stroke="none">
<path d="M150 800 l0 -250 200 0 200 0 0 250 0 250 -200 0 -200 0 0 -250z
m300 0 l0 -150 -100 0 -100 0 0 150 0 150 100 0 100 0 0 -150z"/>
<path d="M650 900 l0 -150 200 0 200 0 0 150 0 150 -200 0 -200 0 0 -150z
m300 0 l0 -50 -100 0 -100 0 0 50 0 50 100 0 100 0 0 -50z"/>
<path d="M650 400 l0 -250 200 0 200 0 0 250 0 250 -200 0 -200 0 0 -250z
m300 0 l0 -150 -100 0 -100 0 0 150 0 150 100 0 100 0 0 -150z"/>
<path d="M150 300 l0 -150 200 0 200 0 0 150 0 150 -200 0 -200 0 0 -150z
m300 0 l0 -50 -100 0 -100 0 0 50 0 50 100 0 100 0 0 -50z"/>
</g>
</svg>
