<?xml version="1.0" standalone="no"?>
<!DOCTYPE svg PUBLIC "-//W3C//DTD SVG 20010904//EN"
 "http://www.w3.org/TR/2001/REC-SVG-20010904/DTD/svg10.dtd">
<svg version="1.0" xmlns="http://www.w3.org/2000/svg"
 width="240.000000pt" height="240.000000pt" viewBox="0 0 240.000000 240.000000"
 preserveAspectRatio="xMidYMid meet">

<g transform="translate(0.000000,240.000000) scale(0.100000,-0.100000)"
fill="#000000" stroke="none">
<path d="M930 2183 c-84 -49 -166 -101 -183 -118 -65 -65 -76 -159 -28 -254
l30 -58 -33 -11 c-19 -7 -60 -30 -92 -51 -288 -188 -402 -565 -265 -875 l19
-43 -28 -59 c-70 -148 -65 -310 12 -456 l31 -58 853 0 854 0 0 100 0 100 -402
0 -403 0 0 103 0 103 388 223 c213 123 389 227 391 230 4 6 -76 147 -93 164
-6 6 -143 -67 -385 -207 -206 -119 -378 -216 -382 -216 -3 0 -35 26 -69 59
-108 100 -237 147 -380 138 -73 -4 -119 -17 -221 -63 -19 -8 -39 86 -38 176 2
149 72 293 187 380 50 37 130 79 153 80 6 0 50 -69 98 -152 48 -84 98 -163
110 -176 40 -41 85 -40 169 7 41 22 77 41 80 41 3 0 24 -34 47 -76 23 -41 48
-78 54 -80 13 -5 155 72 167 89 6 9 -13 46 -72 144 l-19 31 62 35 c35 20 73
45 85 56 31 30 39 81 18 122 -38 75 -319 556 -342 588 -34 44 -94 71 -164 71
-51 0 -66 -6 -209 -87z m358 -360 c67 -116 122 -216 122 -221 0 -8 -216 -139
-240 -145 -12 -3 -284 466 -273 471 4 1 62 34 128 71 106 62 120 68 130 53 6
-9 66 -112 133 -229z m-362 -1054 c100 -48 167 -155 168 -269 1 -109 27 -100
-293 -100 l-280 0 -12 42 c-22 85 9 192 77 262 88 90 231 118 340 65z"/>
</g>
</svg>
