<?xml version="1.0" standalone="no"?>
<!DOCTYPE svg PUBLIC "-//W3C//DTD SVG 20010904//EN"
 "http://www.w3.org/TR/2001/REC-SVG-20010904/DTD/svg10.dtd">
<svg version="1.0" xmlns="http://www.w3.org/2000/svg"
 width="120.000000pt" height="120.000000pt" viewBox="0 0 120.000000 120.000000"
 preserveAspectRatio="xMidYMid meet">

<g transform="translate(0.000000,120.000000) scale(0.100000,-0.100000)"
fill="#000000" stroke="none">
<path d="M490 1087 c-67 -16 -117 -37 -167 -71 l-37 -26 -28 27 c-21 20 -29
23 -32 12 -8 -23 -46 -196 -46 -207 0 -8 207 33 219 44 3 2 -6 15 -18 28 l-23
24 24 16 c71 46 122 61 218 61 85 -1 102 -4 162 -32 84 -40 147 -97 186 -170
109 -208 33 -447 -176 -550 -72 -36 -81 -38 -171 -38 -87 0 -102 3 -163 32
-93 44 -151 100 -196 191 -35 72 -37 81 -38 176 l0 101 -42 9 c-23 5 -45 6
-48 3 -4 -3 -9 -46 -11 -94 -4 -75 -1 -100 20 -165 31 -97 73 -163 143 -228
197 -179 494 -171 685 19 70 71 109 138 134 236 62 242 -81 502 -323 586 -73
25 -200 33 -272 16z"/>
<path d="M550 850 l0 -50 -36 0 c-47 0 -98 -25 -120 -58 -21 -32 -23 -91 -5
-126 28 -51 55 -61 196 -66 125 -5 130 -6 133 -27 3 -23 3 -23 -147 -23 l-151
0 0 -50 0 -50 65 0 65 0 0 -50 0 -50 50 0 50 0 0 50 0 50 36 0 c46 0 98 25
119 57 21 31 22 105 2 134 -33 47 -56 54 -192 59 -122 5 -130 6 -130 25 0 19
8 20 148 23 l147 3 0 49 0 50 -65 0 -65 0 0 50 0 50 -50 0 -50 0 0 -50z"/>
</g>
</svg>
