<?xml version="1.0" standalone="no"?>
<!DOCTYPE svg PUBLIC "-//W3C//DTD SVG 20010904//EN"
 "http://www.w3.org/TR/2001/REC-SVG-20010904/DTD/svg10.dtd">
<svg version="1.0" xmlns="http://www.w3.org/2000/svg"
 width="120.000000pt" height="120.000000pt" viewBox="0 0 120.000000 120.000000"
 preserveAspectRatio="xMidYMid meet">

<g transform="translate(0.000000,120.000000) scale(0.100000,-0.100000)"
fill="#000000" stroke="none">
<path d="M60 931 c-6 -12 -10 -134 -10 -325 l0 -306 24 0 c19 0 27 -8 35 -33
22 -65 96 -117 166 -117 70 0 144 52 166 117 l11 33 123 0 123 0 11 -33 c22
-65 96 -117 166 -117 70 0 144 52 166 117 10 31 13 33 60 33 l49 0 0 150 0
151 -72 99 -73 99 -77 1 -78 0 0 65 c0 53 -3 66 -19 75 -13 6 -154 10 -390 10
-356 0 -371 -1 -381 -19z m690 -281 c0 -266 11 -250 -171 -250 l-139 0 -36 39
c-19 22 -51 45 -71 52 -47 15 -118 6 -154 -20 l-29 -22 0 201 0 200 300 0 300
0 0 -200z m249 -20 c28 -39 51 -73 51 -75 0 -3 -45 -5 -100 -5 l-100 0 0 75 0
75 49 0 49 0 51 -70z m-694 -236 c23 -9 48 -62 41 -90 -8 -29 -60 -58 -92 -50
-29 8 -58 60 -50 92 4 13 19 30 34 38 30 17 43 19 67 10z m600 0 c23 -9 48
-62 41 -90 -8 -29 -60 -58 -92 -50 -29 8 -58 60 -50 92 4 13 19 30 34 38 30
17 43 19 67 10z"/>
</g>
</svg>
