<svg width="60" height="40" viewBox="0 0 60 40" fill="none" xmlns="http://www.w3.org/2000/svg">
<g id="AI" clip-path="url(#clip0_2_3817)">
<path id="Vector" d="M26.6066 2.73042V6.87981L29.1738 8.36232V32.2929L26.6066 33.7755V37.9248L30.2001 40L33.7938 37.9248V33.7755L31.2265 32.2929V8.36232L33.7938 6.87981V2.73042L30.2001 0.655212L26.6066 2.73042Z" fill="white"/>
<path id="Vector_2" d="M21.0445 11.2638L23.6123 9.78131V5.63189L20.0182 3.55719L16.4245 5.63189V9.78131L18.9919 11.2638V15.3398H23.407V19.226H17.9286V19.327L16.4097 16.6961H12.2603L10.1851 20.2897L12.2603 23.8838H16.4097L17.9286 21.2529V21.2786H23.407V25.3161H18.9919V29.3915L16.4245 30.8741V35.0235L20.0182 37.0981L23.6123 35.0235V30.8741L21.0445 29.3915V27.3688H25.4597V13.2872H21.0445V11.2638Z" fill="white"/>
<path id="Vector_3" d="M48.143 16.6961H43.993L42.4741 19.327V19.3014H36.9956V15.3398H41.4108V11.2638L43.9782 9.78131V5.63189L40.3846 3.55719L36.7903 5.63189V9.78131L39.3582 11.2638V13.2872H34.943V27.3688H39.3582V29.3915L36.7903 30.8741V35.0235L40.3846 37.0981L43.9782 35.0235V30.8741L41.4108 29.3915V25.3161H36.9956V21.354H42.4741V21.2529L43.993 23.8838H48.143L50.2177 20.2897L48.143 16.6961Z" fill="white"/>
</g>
<defs>
<clipPath id="clip0_2_3817">
<rect width="60" height="40" fill="white"/>
</clipPath>
</defs>
</svg>
