<svg width="60" height="40" viewBox="0 0 60 40" fill="none" xmlns="http://www.w3.org/2000/svg">
<path d="M24.0455 16.6656V9.99986L18.2728 6.66675L12.5 9.99986V16.6656L18.2728 19.9987L24.0455 16.6656Z" fill="white"/>
<path d="M12.5 23.3343V30.0001L18.2728 33.3326L24.0455 30.0001V23.3343L18.2728 20.0012L12.5 23.3343Z" fill="white"/>
<path d="M41.3638 6.66675L35.5911 9.99986V16.6656L41.3638 19.9987L47.1366 16.6656V9.99986L41.3638 6.66675Z" fill="white"/>
<path d="M35.5911 23.3343V30.0001L41.3638 33.3326L47.1366 30.0001V23.3343L41.3638 20.0012L35.5911 23.3343Z" fill="white"/>
<path d="M35.5909 23.3328V16.6671L29.8182 13.334L24.0454 16.6671V23.3328L29.8182 26.6659L35.5909 23.3328Z" fill="white"/>
<path d="M35.5909 9.99831V3.3326L29.8182 0L24.0454 3.3326V9.99831L29.8182 13.3314L35.5909 9.99831Z" fill="white"/>
<path d="M24.0454 30.0011V36.6673L29.8182 39.9999L35.5909 36.6673V30.0011L29.8182 26.6685L24.0454 30.0011Z" fill="white"/>
</svg>
