<svg width="61" height="40" viewBox="0 0 61 40" fill="none" xmlns="http://www.w3.org/2000/svg">
<g id="ML" clip-path="url(#clip0_2_3825)">
<path id="Vector" d="M47.3331 14.5306V9.99876L43.4029 7.73023L40.6635 9.30898L33.9326 5.42598V2.26849L30.0024 0L26.0721 2.26849V6.80036L28.8115 8.3791V16.1502L27.263 17.0444L20.5269 13.1562V9.9936L16.5967 7.72512L12.6767 9.99876V14.5306L15.4161 16.1093V23.8907L12.6767 25.4694V30.0012L16.6069 32.2698L19.3463 30.691L26.0772 34.574V37.7315L30.0074 40L33.9376 37.7315V33.1996L31.1983 31.6209V23.8498L32.7468 22.9556L39.4829 26.8438V30.0064L43.4131 32.2748L47.3433 30.0064V25.4745L44.604 23.8957V16.1145L47.3331 14.5306ZM40.6635 24.7848L33.9326 20.8966V19.1084L40.6686 15.2204L42.2172 16.1145V23.8957L40.6635 24.7848ZM27.263 32.515L20.532 28.632V26.8438L27.268 22.9556L28.8167 23.8498V31.6209L27.263 32.515ZM19.3412 15.2204L26.0772 19.1084V20.8966L19.3412 24.7848L17.7926 23.8907V16.1145L19.3412 15.2204ZM32.7417 7.485L39.4727 11.368V13.1562L32.7366 17.0444L31.188 16.1502V8.3791L32.7417 7.485Z" fill="white"/>
</g>
<defs>
<clipPath id="clip0_2_3825">
<rect width="60" height="40" fill="white" transform="translate(0.0100098)"/>
</clipPath>
</defs>
</svg>
